<svg width="93" height="127" viewBox="0 0 93 127" fill="none" xmlns="http://www.w3.org/2000/svg">
<path fill-rule="evenodd" clip-rule="evenodd" d="M5.11043 25.1925C3.25283 28.673 2.37124 31.845 2.37124 34.1933V108.081H90.6288V34.1933C90.6288 31.8517 89.7249 28.6833 87.8277 25.2015C85.9413 21.7392 83.1134 18.0438 79.3701 14.656C71.8917 7.88792 60.7876 2.37124 46.2866 2.37124C31.7868 2.37124 20.7921 7.88685 13.4226 14.6504C9.73325 18.0364 6.9581 21.7305 5.11043 25.1925ZM11.8192 12.9034C19.5901 5.77149 31.1458 0 46.2866 0C61.4261 0 73.0858 5.77042 80.9612 12.8978C84.8948 16.4578 87.8913 20.3621 89.91 24.0669C91.9179 27.7522 93 31.3181 93 34.1933V110.452H0V34.1933C0 31.3248 1.05096 27.7625 3.01848 24.076C4.99591 20.3709 7.93841 16.4651 11.8192 12.9034Z" fill="white"/>
<path fill-rule="evenodd" clip-rule="evenodd" d="M51.1239 65.3039C51.5168 65.3039 51.8353 65.6224 51.8353 66.0153V66.9164C51.8353 67.5334 51.9101 69.211 52.2025 70.7688L52.2025 70.769C52.3942 71.7913 53.0658 72.8295 53.925 73.7495C54.7756 74.6601 55.7468 75.3874 56.4213 75.7908L56.4338 75.7983L56.446 75.8063C57.219 76.3129 58.1264 76.8075 59.1284 77.3517L59.1764 77.3778C60.1559 77.9098 61.2146 78.4849 62.266 79.1415C64.4048 80.4771 66.5631 82.1795 68.0911 84.6595C69.6126 87.1288 70.4759 90.4954 71.0615 93.8439C71.4245 95.92 71.691 98.0645 71.9336 100.016C72.08 101.194 72.2177 102.302 72.3626 103.282L72.3652 103.3L72.8993 108.819C72.9371 109.21 72.6508 109.558 72.2598 109.595C71.8687 109.633 71.521 109.347 71.4832 108.956L70.9525 103.472C70.7983 102.427 70.6583 101.298 70.5117 100.115C70.2745 98.201 70.02 96.1477 69.66 94.0889C69.0796 90.7702 68.2512 87.6315 66.8798 85.4058C65.515 83.1907 63.5629 81.6288 61.5124 80.3483C60.4979 79.7147 59.4715 79.1572 58.4828 78.6202L58.4493 78.602C57.4642 78.0669 56.5069 77.5462 55.6783 77.0042C54.8997 76.5368 53.8287 75.7307 52.8853 74.7207C51.9455 73.7145 51.0677 72.437 50.8041 71.0311C50.4913 69.3642 50.4125 67.595 50.4125 66.9164V66.0153C50.4125 65.6224 50.731 65.3039 51.1239 65.3039ZM60.8755 91.4551C61.2311 91.288 61.6548 91.4409 61.8218 91.7964C64.4525 97.396 64.983 105.298 64.9324 108.897C64.9268 109.29 64.6039 109.604 64.2111 109.599C63.8182 109.593 63.5042 109.27 63.5098 108.877C63.5595 105.342 63.025 97.7035 60.5341 92.4014C60.3671 92.0458 60.5199 91.6221 60.8755 91.4551Z" fill="white"/>
<path d="M41.9343 65.3039C41.5414 65.3039 41.2229 65.6224 41.2229 66.0153V66.9164C41.2229 67.5334 41.148 69.211 40.8557 70.7688L40.8557 70.769C40.664 71.7913 39.9924 72.8295 39.1332 73.7495C38.2826 74.6601 37.3114 75.3874 36.6369 75.7908L36.6244 75.7983L36.6122 75.8063C35.8392 76.3129 34.9318 76.8075 33.9298 77.3517L33.8818 77.3778C32.9023 77.9098 31.8436 78.4849 30.7922 79.1415C28.6534 80.4771 26.4951 82.1795 24.9671 84.6595C23.4456 87.1288 22.5823 90.4954 21.9967 93.8439C21.6337 95.9199 21.3672 98.0644 21.1247 100.016L21.1246 100.016L21.1246 100.016C20.9782 101.194 20.8405 102.302 20.6956 103.282L20.693 103.3L20.1589 108.819C20.121 109.21 20.4074 109.558 20.7984 109.595C21.1895 109.633 21.5372 109.347 21.575 108.956L22.1057 103.472C22.2599 102.427 22.3999 101.298 22.5464 100.115C22.7837 98.201 23.0382 96.1477 23.3982 94.0889C23.9786 90.7702 24.807 87.6315 26.1784 85.4058C27.5432 83.1907 29.4952 81.6288 31.5458 80.3483C32.5603 79.7147 33.5867 79.1572 34.5753 78.6202L34.6089 78.602C35.594 78.0669 36.5513 77.5462 37.3799 77.0042C38.1585 76.5368 39.2295 75.7307 40.1729 74.7207C41.1127 73.7145 41.9905 72.437 42.2541 71.0311C42.5669 69.3642 42.6456 67.595 42.6456 66.9164V66.0153C42.6456 65.6224 42.3272 65.3039 41.9343 65.3039Z" fill="white"/>
<path d="M32.1827 91.4551C31.8271 91.288 31.4034 91.4409 31.2364 91.7964C28.6057 97.396 28.0752 105.298 28.1258 108.897C28.1313 109.29 28.4543 109.604 28.8471 109.599C29.24 109.593 29.5539 109.27 29.5484 108.877C29.4987 105.342 30.0332 97.7035 32.5241 92.4014C32.6911 92.0458 32.5383 91.6221 32.1827 91.4551Z" fill="white"/>
<path fill-rule="evenodd" clip-rule="evenodd" d="M61.0474 48.2396C61.4093 48.2984 61.655 48.6395 61.5962 49.0015C61.175 51.5926 60.0495 55.6707 57.7631 59.4715C55.4741 63.2766 51.9912 66.8498 46.8477 68.3137L46.666 68.3655L46.4842 68.3137C41.3457 66.8512 37.7694 63.2832 35.3855 59.482C33.004 55.6845 31.7795 51.605 31.3564 49.0014C31.2976 48.6395 31.5433 48.2984 31.9052 48.2396C32.2672 48.1808 32.6083 48.4265 32.6671 48.7884C33.066 51.2435 34.2364 55.1503 36.5105 58.7765C38.7529 62.3522 42.0361 65.6067 46.666 66.9837C51.2885 65.6082 54.4765 62.3588 56.6252 58.7869C58.8046 55.1641 59.8844 51.2559 60.2855 48.7884C60.3443 48.4265 60.6854 48.1808 61.0474 48.2396Z" fill="white"/>
<path fill-rule="evenodd" clip-rule="evenodd" d="M62.6601 50.7989C62.1033 50.3954 61.4083 50.1414 60.9711 50.0717L61.1951 48.6667C61.8487 48.7709 62.7538 49.1097 63.495 49.6468C64.2234 50.1746 64.9613 51.0255 64.8751 52.173C64.7922 53.2781 64.3521 54.2157 63.3641 54.6882C62.4503 55.1252 61.236 55.0732 59.8142 54.7055L60.1705 53.3281C61.4993 53.6718 62.3005 53.6198 62.7502 53.4047C63.1257 53.2252 63.3969 52.8586 63.4563 52.0666L63.4564 52.0665C63.4877 51.6491 63.2297 51.2116 62.6601 50.7989Z" fill="white"/>
<path fill-rule="evenodd" clip-rule="evenodd" d="M30.4396 50.7989C30.9964 50.3954 31.6915 50.1414 32.1286 50.0717L31.9046 48.6667C31.251 48.7709 30.3459 49.1097 29.6048 49.6468C28.8763 50.1746 28.1384 51.0255 28.2246 52.173C28.3075 53.2781 28.7476 54.2157 29.7356 54.6882C30.6494 55.1252 31.8637 55.0732 33.2855 54.7055L32.9293 53.3281C31.6004 53.6718 30.7992 53.6198 30.3495 53.4047C29.974 53.2252 29.7028 52.8586 29.6434 52.0666L29.6434 52.0665C29.612 51.6491 29.87 51.2116 30.4396 50.7989Z" fill="white"/>
<path d="M21.3178 103.419C19.7845 103.072 16.6461 101.47 17.0255 97.7899C13.9429 99.5446 8.22858 96.0684 7.84918 91.6579C7.46978 87.2474 10.6696 81.6655 11.5242 80.385C12.1889 79.3891 12.7573 78.2509 13.1367 74.5518C13.368 72.2962 14.6309 68.5146 17.8558 65.5742C15.3423 61.8277 18.4957 56.0087 19.871 54.3962C21.5294 52.4518 21.5029 50.4789 21.9102 49.5115C22.2896 48.6104 22.3604 48.5771 22.7639 47.5671C23.0734 46.7923 24.1297 44.5319 26.1785 39.2203C28.7394 32.5808 30.921 27.3967 34.051 25.2774C38.7935 22.0664 42.9431 20.9476 46.3577 23.6034V32.7705C45.781 33.9877 43.2324 37.5035 37.6553 41.8287C35.9859 43.3463 33.4503 47.1718 32.3911 48.8475C31.4426 49.464 29.5172 50.5833 29.4034 50.5074C29.2611 50.4125 31.5849 44.105 35.616 40.8802C39.6471 37.6553 42.6169 34.5727 44.0102 32.3437C44.8401 31.0158 44.8401 31.5849 44.8401 29.4982C43.3225 29.024 40.0739 31.2529 36.4697 35.4737C37.4656 33.2922 42.0193 27.5064 44.8401 27.5538V26.0836L44.8231 26.0794C43.7731 25.8267 42.3304 25.4796 39.0306 27.6961C35.8285 29.8468 33.0867 33.8297 32.8654 34.383C33.6558 32.1587 37.1051 26.1993 41.5441 25.2774C42.5495 24.898 44.161 24.9613 44.8401 25.0403V24.5519C44.437 24.2341 44.0804 24.1251 42.8009 24.1251C39.3863 24.1251 37.6553 25.1351 34.8098 27.5538C31.9643 29.9725 30.2096 35.4737 29.4034 37.513C28.7584 39.1444 26.2733 45.6226 24.7557 48.7053L30.1622 44.6741C28.7078 46.8241 25.8421 51.2615 25.5386 51.4892C25.1592 51.7737 22.5509 54.6191 20.7013 57.6069C18.8517 60.5946 19.5864 63.5966 19.6339 63.8338C19.6813 64.0709 19.6339 63.8338 23.0251 62.1597C22.7564 62.6652 22.1948 64.2132 20.559 66.1433C18.6372 68.4112 16.9547 68.1352 15.4371 73.9684C14.2532 81.3193 14.7258 79.7543 11.5957 85.2555C9.09171 89.6565 10.2596 92.668 11.1448 93.7114C12.3779 95.1559 15.6028 96.6991 18.6854 94.0908C18.0688 97.8848 20.6298 99.4498 21.9577 99.7817L21.3178 103.419Z" fill="white"/>
<path d="M26.0836 74.6466C25.4007 78.4026 22.7323 81.1751 21.436 82.1397C21.6099 81.3174 21.7951 79.7476 22.1474 78.8674C22.7165 77.4447 23.3451 76.6252 23.665 75.4528C24.3763 72.8445 23.9969 73.461 24.1866 68.9082C24.3763 64.3554 26.7002 60.4666 27.3167 60.2295C27.8858 60.0104 28.4549 60.2295 28.692 60.4666C28.9291 60.7037 29.0773 60.7341 28.8817 61.3202C28.6446 62.0316 28.1428 62.8065 27.0796 65.5742C25.7991 68.9082 26.9373 69.9516 26.0836 74.6466Z" fill="white"/>
<path d="M71.398 103.419C72.9317 103.071 76.0703 101.47 75.6909 97.7899C78.7735 99.5446 84.4872 96.0684 84.8666 91.6579C85.246 87.2474 82.0468 81.6655 81.1922 80.385C80.5273 79.3891 79.9591 78.2509 79.5797 74.5518C79.3483 72.2962 78.0849 68.5146 74.86 65.5742C77.3735 61.8277 74.2207 56.0087 72.8454 54.3962C71.1865 52.4518 71.2131 50.4789 70.8061 49.5115C70.4268 48.6104 70.3556 48.5771 69.9525 47.5671C69.6433 46.7923 68.5867 44.5319 66.5379 39.2203C63.977 32.5808 61.7954 27.3967 58.6654 25.2774C53.9229 22.0664 49.7723 20.9476 46.3577 23.6034V32.7705C46.9354 33.9877 49.484 37.5035 55.0611 41.8287C56.7305 43.3463 59.2658 47.1718 60.3253 48.8475C61.2738 49.464 63.1992 50.5833 63.313 50.5074C63.4553 50.4125 61.1315 44.105 57.1004 40.8802C53.0693 37.6553 50.0995 34.5727 48.7062 32.3437C47.8753 31.0158 47.8753 31.5849 47.8753 29.4982C49.3929 29.024 52.6425 31.2529 56.2467 35.4737C55.2508 33.2922 50.6971 27.5064 47.8753 27.5538V26.0836L47.8933 26.0794C48.9433 25.8267 50.386 25.4796 53.6858 27.6961C56.8879 29.8468 59.6291 33.8297 59.851 34.383C59.06 32.1587 55.6112 26.1993 51.1723 25.2774C50.1669 24.898 48.5554 24.9613 47.8753 25.0403V24.5519C48.2794 24.2341 48.636 24.1251 49.9146 24.1251C53.3292 24.1251 55.0611 25.1351 57.9066 27.5538C60.7521 29.9725 62.5068 35.4737 63.313 37.513C63.958 39.1444 66.4431 45.6226 67.9607 48.7053L62.5542 44.6741C64.0083 46.8241 66.8737 51.2615 67.1772 51.4892C67.5566 51.7737 70.165 54.6191 72.0145 57.6069C73.8641 60.5946 73.13 63.5966 73.0825 63.8338C73.0351 64.0709 73.0825 63.8338 69.6907 62.1597C69.9601 62.6652 70.5216 64.2132 72.1568 66.1433C74.0794 68.4112 75.7611 68.1352 77.2787 73.9684C78.4634 81.3193 77.9901 79.7543 81.1201 85.2555C83.6241 89.6565 82.4565 92.668 81.5716 93.7114C80.3385 95.1559 77.1136 96.6991 74.031 94.0908C74.6476 97.8848 72.0866 99.4498 70.7587 99.7817L71.398 103.419Z" fill="white"/>
<path d="M66.6081 74.676C67.291 78.4321 69.9601 81.2045 71.2557 82.1691C71.0821 81.3468 70.8972 79.777 70.5443 78.8968C69.9752 77.4741 69.3473 76.6546 69.0268 75.4822C68.3154 72.8739 68.6948 73.4904 68.5051 68.9376C68.3154 64.3848 65.9916 60.496 65.375 60.2589C64.8059 60.0398 64.2368 60.2589 63.9997 60.496C63.7626 60.7331 63.6146 60.7625 63.81 61.3497C64.0472 62.061 64.5489 62.835 65.6122 65.6037C66.8926 68.9376 65.7544 69.981 66.6081 74.676Z" fill="white"/>
<path fill-rule="evenodd" clip-rule="evenodd" d="M38.0056 46.7096C38.1386 46.484 38.4294 46.409 38.655 46.542C39.2172 46.8736 40.2379 47.2861 41.4189 47.4059C42.5939 47.5251 43.8974 47.3525 45.0724 46.5577C45.2893 46.411 45.5842 46.4679 45.7309 46.6848C45.8777 46.9018 45.8208 47.1966 45.6038 47.3434C44.1988 48.2938 42.6569 48.4848 41.3231 48.3495C39.9954 48.2148 38.844 47.7547 38.1732 47.359C37.9476 47.226 37.8725 46.9352 38.0056 46.7096Z" fill="white"/>
<path fill-rule="evenodd" clip-rule="evenodd" d="M47.2938 46.5212C47.4724 46.4707 47.6539 46.4986 47.808 46.5895C48.3702 46.921 49.3909 47.3335 50.5719 47.4533C51.7468 47.5725 53.0504 47.4 54.2253 46.6052C54.4423 46.4584 54.7371 46.5153 54.8839 46.7322C55.0306 46.9492 54.9737 47.244 54.7568 47.3908C53.3518 48.3412 51.8099 48.5323 50.4761 48.397C49.2829 48.2759 48.2322 47.892 47.5446 47.5284C47.5178 47.5818 47.4871 47.6521 47.4547 47.7422C47.311 48.1428 47.192 48.7715 47.1636 49.5101C47.1063 51.0024 47.4237 52.7657 48.4402 53.8882C48.5803 54.0429 48.6863 54.2251 48.7224 54.4342C48.7594 54.6484 48.7154 54.8468 48.6288 55.0146C48.4692 55.3239 48.1613 55.5393 47.8935 55.6845C47.341 55.9842 46.6082 56.1685 46.2272 56.197C45.966 56.2166 45.7384 56.0208 45.7188 55.7596C45.6992 55.4984 45.8951 55.2708 46.1563 55.2512C46.4079 55.2323 47.0102 55.0846 47.4412 54.8508C47.6562 54.7342 47.7533 54.6358 47.7826 54.5857C47.7762 54.5737 47.763 54.5534 47.7372 54.5249C46.4774 53.1338 46.1545 51.0691 46.2158 49.4737C46.2467 48.6683 46.3767 47.9383 46.562 47.4219C46.6517 47.1718 46.7702 46.9262 46.9308 46.7534C47.0128 46.6651 47.1324 46.5669 47.2938 46.5212Z" fill="white"/>
<path fill-rule="evenodd" clip-rule="evenodd" d="M51.7577 57.9303C51.9013 58.1494 51.84 58.4434 51.6209 58.5869C47.0057 61.6107 42.8301 59.8572 41.2855 58.5525C41.0854 58.3835 41.0602 58.0843 41.2292 57.8842C41.3982 57.6841 41.6975 57.6589 41.8976 57.8279C43.1985 58.9267 46.9144 60.5366 51.1011 57.7935C51.3202 57.65 51.6142 57.7112 51.7577 57.9303Z" fill="white"/>
<path fill-rule="evenodd" clip-rule="evenodd" d="M38.4377 74.6962C38.8032 74.5521 39.2163 74.7316 39.3604 75.0971C39.761 76.1131 40.6201 77.7213 41.8717 79.1721C43.0936 80.5885 44.6352 81.7929 46.4289 82.217C48.2263 81.7923 49.792 80.5855 51.0376 79.1673C52.3136 77.7146 53.194 76.1071 53.5922 75.0971C53.7362 74.7316 54.1493 74.5521 54.5149 74.6962C54.8804 74.8403 55.0598 75.2534 54.9158 75.6189C54.4603 76.7743 53.4959 78.5244 52.1066 80.1062C50.7207 81.684 48.8521 83.1616 46.5757 83.642L46.4289 83.673L46.282 83.642C44.003 83.1611 42.1571 81.681 40.7944 80.1014C39.4282 78.5177 38.4899 76.7683 38.0368 75.6189C37.8927 75.2534 38.0722 74.8403 38.4377 74.6962Z" fill="white"/>
<path fill-rule="evenodd" clip-rule="evenodd" d="M46.5237 82.612L49.6417 87.289L46.5237 92.4857L43.4057 87.289L46.5237 82.612ZM45.0889 87.3291L46.5237 89.7204L47.9585 87.3291L46.5237 85.1769L45.0889 87.3291Z" fill="white"/>
<path fill-rule="evenodd" clip-rule="evenodd" d="M39.1355 94.7386C39.6606 94.843 40.1306 94.9365 40.5572 94.9995C41.6497 95.1607 42.8079 95.1625 43.8536 95.1205C44.2846 95.1031 44.7184 95.0766 45.1184 95.0521C45.6389 95.0202 46.1024 94.9918 46.4289 94.9918C46.7471 94.9918 47.2235 95.0188 47.7701 95.0496C48.2133 95.0747 48.7028 95.1023 49.1915 95.1204C50.3369 95.1626 51.5887 95.1605 52.6799 94.9995C53.1078 94.9363 53.5749 94.8432 54.0946 94.7397C54.4406 94.6707 54.8099 94.5971 55.2064 94.5246C56.1631 94.3497 57.2185 94.1947 58.2503 94.1958C59.2803 94.1969 60.335 94.3532 61.2638 94.8403C62.2115 95.3373 62.9785 96.1533 63.4534 97.3746C64.3739 99.7417 63.9135 101.768 63.2605 103.388C63.0365 103.944 62.7775 104.478 62.5501 104.948C62.4558 105.143 62.367 105.326 62.2883 105.495C61.9968 106.122 61.8494 106.543 61.8417 106.851C61.8245 107.538 61.9146 108.055 62.0224 108.411C62.0765 108.589 62.1343 108.724 62.1836 108.819C62.2308 108.91 62.2631 108.951 62.2671 108.956C62.2676 108.956 62.2677 108.956 62.2675 108.956C62.5353 109.244 62.5195 109.694 62.2321 109.962C61.9447 110.229 61.4945 110.214 61.2267 109.926C60.8352 109.506 60.3787 108.443 60.4194 106.815C60.4354 106.174 60.7148 105.505 60.9983 104.895C61.0947 104.688 61.194 104.483 61.2942 104.276C61.5128 103.825 61.7355 103.366 61.9409 102.856C62.5209 101.417 62.8668 99.7915 62.1274 97.8903C61.7724 96.9774 61.2352 96.4319 60.603 96.1003C59.952 95.7589 59.1513 95.6196 58.2487 95.6186C57.3479 95.6176 56.3937 95.7538 55.4623 95.9241C55.1212 95.9865 54.773 96.0557 54.432 96.1234C53.8774 96.2336 53.3421 96.3399 52.8876 96.407C51.6645 96.5874 50.308 96.5853 49.139 96.5421C48.5637 96.5209 48.0542 96.4914 47.6175 96.4662C47.1259 96.4377 46.7264 96.4146 46.4289 96.4146C46.1263 96.4146 45.7471 96.4384 45.2841 96.4675C44.8888 96.4924 44.4324 96.5211 43.9107 96.5421C42.8318 96.5854 41.5713 96.5872 40.3495 96.407C39.8967 96.3402 39.359 96.2336 38.7989 96.1225C38.4514 96.0536 38.0953 95.983 37.7454 95.9191C36.796 95.7458 35.8168 95.6052 34.8907 95.6024C33.962 95.5996 33.1358 95.7362 32.4664 96.077C31.8171 96.4077 31.2727 96.9512 30.92 97.858C30.1807 99.7592 30.5265 101.385 31.1065 102.824C31.3119 103.333 31.5347 103.793 31.7532 104.244C31.8534 104.451 31.9527 104.656 32.0491 104.863C32.3326 105.472 32.612 106.142 32.628 106.783C32.6687 108.411 32.2127 109.474 31.8204 109.894C31.5524 110.182 31.1022 110.197 30.815 109.929C30.5278 109.661 30.5122 109.211 30.7803 108.924C30.78 108.924 30.7801 108.924 30.7806 108.923C30.7848 108.918 30.8169 108.878 30.8639 108.787C30.9132 108.692 30.971 108.557 31.0251 108.379C31.1329 108.023 31.2229 107.506 31.2057 106.818C31.198 106.51 31.0506 106.09 30.7591 105.463C30.6804 105.294 30.5916 105.11 30.4973 104.916C30.2699 104.446 30.0109 103.911 29.7869 103.356C29.1339 101.736 28.6735 99.7094 29.594 97.3424C30.0713 96.1151 30.8548 95.3011 31.8208 94.8092C32.7668 94.3275 33.8436 94.1765 34.8949 94.1797C35.9488 94.1828 37.0266 94.3416 38.0009 94.5195C38.4062 94.5935 38.7833 94.6685 39.1355 94.7386Z" fill="white"/>
<path d="M74.0775 27.8383C74.0775 26.7591 72.4034 22.8465 69.0031 22.1719C72.226 21.9561 73.7285 18.754 74.0775 17.4049C74.4266 18.754 75.929 22.001 79.152 22.2169C75.7516 22.8915 74.0775 26.7591 74.0775 27.8383Z" fill="white"/>
<path d="M12.2356 46.998C12.2356 45.4967 9.99828 40.0548 5.45385 39.1164C9.76059 38.8162 11.7695 34.3625 12.2356 32.486C12.7017 34.3625 14.7106 38.8787 19.0173 39.179C14.4729 40.1173 12.2356 45.4967 12.2356 46.998Z" fill="white"/>
<path d="M84.3687 74.7415C84.3687 73.6033 82.8511 69.4773 79.7685 68.7659C82.6898 68.5383 84.0528 65.1617 84.3687 63.7389C84.6845 65.1617 86.0475 68.5857 88.9689 68.8134C85.8863 69.5247 84.3687 73.6033 84.3687 74.7415Z" fill="white"/>
<path d="M3.99278 114.397H0V126.223H3.99278C8.11231 126.223 10.3685 123.625 10.3685 120.291C10.3685 116.983 8.11231 114.397 3.99278 114.397ZM3.68856 124.69H1.87597V115.931H3.68856C6.85743 115.931 8.40384 117.655 8.40384 120.291C8.40384 122.953 6.85743 124.69 3.68856 124.69ZM20.2427 121.85C20.2427 119.353 18.5569 117.617 16.1105 117.617C13.5881 117.617 11.7882 119.556 11.7882 122.028C11.7882 124.512 13.5628 126.426 16.3133 126.426C17.7837 126.426 19.0005 125.932 19.7611 125.082L18.5189 124.081C17.9865 124.69 17.264 125.006 16.3007 125.006C14.7289 125.006 13.8036 123.916 13.6768 122.421H20.2427V121.85ZM16.1105 119.062C17.4288 119.062 18.278 119.847 18.4682 121.178H13.7529C14.0064 119.911 14.881 119.062 16.1105 119.062ZM25.9087 117.617C24.92 117.617 24.2482 118.098 23.7665 118.948L23.551 117.832H21.992V126.223H23.7919V121.85C23.7919 120.481 24.5017 119.264 25.82 119.264C26.1115 119.264 26.3903 119.315 26.6312 119.429L27.1636 117.895C26.9481 117.756 26.4664 117.617 25.9087 117.617ZM37.5574 117.617C36.0744 117.617 35.3392 118.174 34.8069 118.948C34.2618 117.997 33.3492 117.617 32.3858 117.617C31.4225 117.617 30.5479 118.073 30.0662 118.91L29.8634 117.832H28.2917V126.223H30.0916V121.292C30.2057 119.886 30.8648 119.15 31.9422 119.15C33.083 119.15 33.552 120.088 33.552 121.457V126.223H35.3392V121.723C35.3392 120.076 36.011 119.15 37.1645 119.15C38.3307 119.15 38.7996 120.088 38.7996 121.445V126.223H40.5869V121.318C40.5869 118.58 39.1419 117.617 37.5574 117.617ZM45.2515 126.464C46.4303 126.464 47.5457 125.957 48.1161 125.159L48.395 126.223H49.9034V121.204C49.9034 118.821 48.6612 117.617 46.1895 117.617C44.9473 117.617 43.9205 117.933 43.122 118.555L43.9205 119.797C44.4656 119.315 45.1881 119.074 45.9993 119.074C47.3302 119.074 48.1161 119.708 48.1161 120.836V121.533L47.888 121.457C44.2501 120.088 42.2474 121.964 42.2474 123.764C42.2474 125.336 43.5783 126.464 45.2515 126.464ZM45.7838 125.082C44.7318 125.082 44.136 124.411 44.136 123.637C44.136 122.661 45.2641 121.685 47.8753 122.611L48.1161 122.674V122.915C48.1161 124.284 47.0007 125.082 45.7838 125.082ZM56.4186 117.617C55.2271 117.617 54.3271 118.098 53.8201 118.833L53.6046 117.832H52.0328V126.223H53.8201V121.102C53.9722 119.632 54.9736 119.15 55.9115 119.15C57.2044 119.15 57.7622 120.076 57.7622 121.445V126.223H59.5494V121.039C59.5494 118.428 57.8762 117.617 56.4186 117.617ZM62.769 116.222C63.4154 116.222 63.9351 115.715 63.9351 115.082C63.9351 114.448 63.4154 113.941 62.769 113.941C62.1225 113.941 61.6028 114.448 61.6028 115.082C61.6028 115.715 62.1225 116.222 62.769 116.222ZM61.907 126.223H63.6563V117.832H61.907V126.223ZM69.2588 114.879C69.4997 114.879 69.8165 114.967 70.0954 115.17L70.8686 113.865C70.2729 113.51 69.7785 113.345 69.0687 113.345C67.573 113.345 66.5209 114.384 66.5209 116.4V117.832H65.4182V119.277H66.5209V126.223H68.2955V119.277H70.0574V117.832H68.2955V116.26C68.2955 115.449 68.5363 114.879 69.2588 114.879ZM79.4119 121.85C79.4119 119.353 77.726 117.617 75.2797 117.617C72.7573 117.617 70.9573 119.556 70.9573 122.028C70.9573 124.512 72.7319 126.426 75.4952 126.426C76.9528 126.426 78.1697 125.932 78.9302 125.082L77.688 124.081C77.1556 124.69 76.4331 125.006 75.4698 125.006C73.898 125.006 72.9727 123.916 72.846 122.421H79.4119V121.85ZM75.2797 119.062C76.5979 119.062 77.4472 119.847 77.6373 121.178H72.922C73.1755 119.911 74.0502 119.062 75.2797 119.062ZM80.3499 125.044C80.9583 125.881 82.2385 126.464 83.8103 126.464C85.8764 126.464 87.1566 125.45 87.1566 123.942C87.1566 120.963 82.7202 121.964 82.7202 120.152C82.7202 119.518 83.2019 119.1 84.1779 119.074C84.7863 119.062 85.4834 119.353 85.9905 119.835L86.9665 118.707C86.4087 118.111 85.344 117.617 84.1018 117.617C82.1118 117.617 80.8822 118.669 80.8822 120.215C80.8822 123.27 85.2426 122.345 85.2426 123.98C85.2426 124.601 84.7356 125.032 83.6962 125.032C82.8596 125.032 82.1118 124.728 81.4907 123.942L80.3499 125.044ZM92.7592 124.677C92.6451 124.753 92.3409 124.842 91.9986 124.842C91.4282 124.842 91.0733 124.512 91.0733 123.752V119.277H92.8479V117.832H91.0733V115.436H89.2734V117.832H88.1706V119.277H89.2734V123.904C89.2734 125.919 90.541 126.375 91.5677 126.375C92.2395 126.375 92.7718 126.249 93 126.135L92.7592 124.677Z" fill="white"/>
</svg>
