<svg width="59" height="81" viewBox="0 0 59 81" fill="none" xmlns="http://www.w3.org/2000/svg">
<path fill-rule="evenodd" clip-rule="evenodd" d="M3.24078 15.9758C2.06279 18.183 1.50372 20.1946 1.50372 21.6837V68.5398H57.4724V21.6837C57.4724 20.1988 56.8992 18.1896 55.6961 15.9816C54.4998 13.786 52.7065 11.4425 50.3327 9.2941C45.5903 5.00213 38.5485 1.50372 29.3527 1.50372C20.1577 1.50372 13.1853 5.00146 8.51196 9.29057C6.17235 11.4378 4.41249 13.7804 3.24078 15.9758ZM7.49519 8.18271C12.4231 3.66 19.7512 0 29.3527 0C38.9534 0 46.3475 3.65932 51.3417 8.17918C53.8361 10.4367 55.7364 12.9127 57.0165 15.2621C58.2899 17.5991 58.9761 19.8604 58.9761 21.6837V70.0435H0V21.6837C0 19.8647 0.666471 17.6056 1.91417 15.2678C3.16816 12.9182 5.03415 10.4414 7.49519 8.18271Z" fill="#2B1200"/>
<path fill-rule="evenodd" clip-rule="evenodd" d="M32.4203 41.4126C32.6694 41.4126 32.8714 41.6145 32.8714 41.8637V42.4351C32.8714 42.8264 32.9189 43.8902 33.1043 44.8782L33.1043 44.8782C33.2259 45.5265 33.6517 46.1849 34.1966 46.7684C34.736 47.3458 35.3519 47.807 35.7796 48.0629L35.7876 48.0676L35.7953 48.0727C36.2855 48.3939 36.8609 48.7076 37.4963 49.0527L37.5268 49.0693C38.1479 49.4066 38.8193 49.7713 39.4861 50.1877C40.8424 51.0347 42.2111 52.1143 43.1801 53.6869C44.1449 55.2529 44.6924 57.3878 45.0637 59.5112C45.294 60.8278 45.463 62.1878 45.6168 63.4253C45.7096 64.1725 45.7969 64.875 45.8888 65.4964L45.8905 65.5076L46.2292 69.0076C46.2532 69.2556 46.0716 69.476 45.8236 69.5C45.5756 69.524 45.3551 69.3425 45.3312 69.0945L44.9946 65.6171C44.8968 64.9544 44.8081 64.2382 44.7151 63.4883C44.5647 62.2743 44.4033 60.9722 44.175 59.6666C43.8069 57.562 43.2816 55.5716 42.4119 54.1602C41.5464 52.7555 40.3085 51.765 39.0082 50.953C38.3648 50.5512 37.7139 50.1976 37.087 49.8571L37.0657 49.8455C36.441 49.5062 35.8339 49.176 35.3085 48.8323C34.8147 48.5359 34.1355 48.0247 33.5373 47.3842C32.9413 46.7461 32.3847 45.936 32.2175 45.0445C32.0191 43.9874 31.9692 42.8654 31.9692 42.4351V41.8637C31.9692 41.6145 32.1712 41.4126 32.4203 41.4126ZM38.6043 57.9964C38.8298 57.8904 39.0985 57.9873 39.2044 58.2128C40.8726 61.7638 41.2091 66.7747 41.177 69.0574C41.1735 69.3065 40.9687 69.5056 40.7195 69.5021C40.4704 69.4986 40.2713 69.2938 40.2748 69.0447C40.3064 66.8027 39.9674 61.9588 38.3878 58.5965C38.2819 58.371 38.3788 58.1023 38.6043 57.9964Z" fill="#2B1200"/>
<path d="M26.5927 41.4126C26.3435 41.4126 26.1416 41.6145 26.1416 41.8637V42.4351C26.1416 42.8264 26.0941 43.8902 25.9087 44.8782L25.9087 44.8782C25.7871 45.5265 25.3612 46.1849 24.8163 46.7684C24.277 47.3458 23.6611 47.807 23.2334 48.0629L23.2254 48.0676L23.2177 48.0727C22.7275 48.3939 22.1521 48.7076 21.5167 49.0527L21.4862 49.0693C20.8651 49.4066 20.1936 49.7713 19.5269 50.1877C18.1706 51.0347 16.8019 52.1143 15.8329 53.6869C14.868 55.2529 14.3206 57.3878 13.9493 59.5112C13.719 60.8277 13.55 62.1877 13.3962 63.4252L13.3962 63.4253L13.3962 63.4254C13.3033 64.1726 13.216 64.8751 13.1242 65.4964L13.1225 65.5076L12.7838 69.0076C12.7598 69.2556 12.9414 69.476 13.1894 69.5C13.4373 69.524 13.6578 69.3425 13.6818 69.0945L14.0184 65.6171C14.1162 64.9544 14.2049 64.2382 14.2979 63.4883C14.4483 62.2743 14.6097 60.9722 14.838 59.6666C15.2061 57.562 15.7314 55.5716 16.601 54.1602C17.4666 52.7555 18.7044 51.765 20.0048 50.953C20.6481 50.5512 21.2991 50.1976 21.926 49.8571L21.9473 49.8455C22.572 49.5062 23.1791 49.176 23.7045 48.8323C24.1982 48.5359 24.8774 48.0247 25.4757 47.3842C26.0717 46.7461 26.6283 45.936 26.7955 45.0445C26.9938 43.9874 27.0438 42.8654 27.0438 42.4351V41.8637C27.0438 41.6145 26.8418 41.4126 26.5927 41.4126Z" fill="#2B1200"/>
<path d="M20.4087 57.9964C20.1832 57.8904 19.9145 57.9873 19.8086 58.2128C18.1404 61.7638 17.8039 66.7747 17.836 69.0574C17.8395 69.3065 18.0443 69.5056 18.2934 69.5021C18.5426 69.4986 18.7417 69.2938 18.7382 69.0447C18.7066 66.8027 19.0456 61.9588 20.6252 58.5965C20.7311 58.371 20.6342 58.1023 20.4087 57.9964Z" fill="#2B1200"/>
<path fill-rule="evenodd" clip-rule="evenodd" d="M38.7133 30.5912C38.9428 30.6285 39.0986 30.8448 39.0613 31.0744C38.7942 32.7175 38.0805 35.3036 36.6306 37.7139C35.179 40.1269 32.9703 42.3929 29.7086 43.3213L29.5933 43.3541L29.478 43.3213C26.2194 42.3938 23.9515 40.1311 22.4398 37.7206C20.9296 35.3124 20.153 32.7254 19.8847 31.0743C19.8474 30.8448 20.0032 30.6285 20.2327 30.5912C20.4623 30.5539 20.6786 30.7097 20.7159 30.9393C20.9689 32.4961 21.7111 34.9736 23.1532 37.2732C24.5752 39.5407 26.6573 41.6046 29.5933 42.4778C32.5247 41.6055 34.5464 39.5449 35.909 37.2798C37.291 34.9824 37.9758 32.504 38.2301 30.9392C38.2674 30.7097 38.4838 30.5539 38.7133 30.5912Z" fill="#2B1200"/>
<path fill-rule="evenodd" clip-rule="evenodd" d="M39.736 32.2142C39.3829 31.9583 38.9421 31.7972 38.6649 31.753L38.807 30.8621C39.2215 30.9281 39.7954 31.143 40.2654 31.4836C40.7274 31.8183 41.1953 32.3579 41.1406 33.0856C41.0881 33.7864 40.809 34.381 40.1824 34.6806C39.603 34.9577 38.8329 34.9248 37.9313 34.6916L38.1572 33.8181C38.9999 34.036 39.508 34.0031 39.7932 33.8667C40.0313 33.7528 40.2033 33.5203 40.2409 33.0181L40.2409 33.0181C40.2608 32.7533 40.0972 32.4759 39.736 32.2142Z" fill="#2B1200"/>
<path fill-rule="evenodd" clip-rule="evenodd" d="M19.3033 32.2142C19.6564 31.9583 20.0972 31.7972 20.3744 31.753L20.2324 30.8621C19.8179 30.9281 19.2439 31.143 18.7739 31.4836C18.312 31.8183 17.844 32.3579 17.8987 33.0856C17.9512 33.7864 18.2303 34.381 18.8569 34.6806C19.4364 34.9577 20.2064 34.9248 21.108 34.6916L20.8821 33.8181C20.0395 34.036 19.5314 34.0031 19.2462 33.8667C19.0081 33.7528 18.8361 33.5203 18.7984 33.0181L18.7984 33.0181C18.7785 32.7533 18.9421 32.4759 19.3033 32.2142Z" fill="#2B1200"/>
<path d="M13.5187 65.5834C12.5464 65.3633 10.5561 64.3474 10.7967 62.0136C8.8419 63.1264 5.21816 60.9219 4.97757 58.125C4.73697 55.328 6.76616 51.7883 7.3081 50.9763C7.72962 50.3447 8.09004 49.6229 8.33063 47.2771C8.47734 45.8468 9.27822 43.4486 11.3233 41.584C9.72934 39.2081 11.7291 35.518 12.6012 34.4954C13.6529 33.2624 13.6361 32.0113 13.8944 31.3978C14.135 30.8264 14.1799 30.8052 14.4358 30.1647C14.632 29.6734 15.3019 28.2399 16.6011 24.8716C18.2251 20.6612 19.6086 17.3737 21.5935 16.0297C24.6009 13.9934 27.2325 13.284 29.3978 14.9681V20.7815C29.0321 21.5534 27.4159 23.7829 23.8791 26.5257C22.8205 27.4881 21.2126 29.9141 20.5409 30.9767C19.9394 31.3677 18.7184 32.0775 18.6462 32.0293C18.556 31.9692 20.0296 27.9693 22.5859 25.9242C25.1423 23.8791 27.0255 21.9243 27.9091 20.5108C28.4354 19.6687 28.4354 20.0296 28.4354 18.7063C27.473 18.4056 25.4129 19.8191 23.1273 22.4957C23.7588 21.1123 26.6466 17.4432 28.4354 17.4733V16.541L28.4246 16.5383C27.7588 16.378 26.8439 16.1579 24.7513 17.5635C22.7207 18.9274 20.982 21.4532 20.8416 21.804C21.3429 20.3935 23.5303 16.6143 26.3453 16.0297C26.9828 15.7891 28.0048 15.8292 28.4354 15.8793V15.5696C28.1798 15.3681 27.9536 15.299 27.1422 15.299C24.9769 15.299 23.8791 15.9395 22.0747 17.4733C20.2702 19.0071 19.1574 22.4957 18.6462 23.7889C18.2372 24.8235 16.6613 28.9317 15.6989 30.8865L19.1274 28.3302C18.2051 29.6936 16.3878 32.5076 16.1954 32.6519C15.9548 32.8324 14.3007 34.6368 13.1278 36.5315C11.9549 38.4262 12.4208 40.3299 12.4508 40.4803C12.4809 40.6306 12.4508 40.4803 14.6014 39.4186C14.431 39.7392 14.0749 40.7209 13.0375 41.9449C11.8188 43.3831 10.7519 43.208 9.78949 46.9072C9.03871 51.5687 9.33837 50.5763 7.35345 54.0649C5.76552 56.8558 6.50613 58.7656 7.0675 59.4272C7.84944 60.3433 9.89451 61.3219 11.8493 59.6678C11.4584 62.0737 13.0824 63.0662 13.9245 63.2767L13.5187 65.5834Z" fill="#2B1200"/>
<path d="M16.541 47.3372C16.1079 49.7191 14.4157 51.4773 13.5937 52.089C13.7039 51.5675 13.8214 50.5721 14.0448 50.0139C14.4057 49.1116 14.8043 48.592 15.0072 47.8485C15.4583 46.1944 15.2177 46.5854 15.338 43.6982C15.4583 40.8111 16.9319 38.345 17.3229 38.1946C17.6838 38.0557 18.0447 38.1946 18.1951 38.345C18.3454 38.4953 18.4394 38.5146 18.3154 38.8863C18.165 39.3374 17.8468 39.8288 17.1725 41.584C16.3605 43.6982 17.0823 44.3599 16.541 47.3372Z" fill="#2B1200"/>
<path d="M45.2771 65.5834C46.2498 65.3627 48.2401 64.3474 47.9995 62.0136C49.9543 63.1264 53.5777 60.9219 53.8183 58.125C54.0589 55.328 52.0301 51.7883 51.4881 50.9763C51.0665 50.3447 50.7062 49.6229 50.4656 47.2771C50.3188 45.8468 49.5177 43.4486 47.4726 41.584C49.0665 39.2081 47.0672 35.518 46.195 34.4954C45.143 33.2624 45.1599 32.0113 44.9018 31.3978C44.6612 30.8264 44.6161 30.8052 44.3605 30.1647C44.1644 29.6734 43.4943 28.2399 42.1951 24.8716C40.5711 20.6612 39.1877 17.3737 37.2027 16.0297C34.1953 13.9934 31.5632 13.284 29.3978 14.9681V20.7815C29.7641 21.5534 31.3803 23.7829 34.9171 26.5257C35.9757 27.4881 37.5835 29.9141 38.2554 30.9767C38.8568 31.3677 40.0779 32.0775 40.15 32.0293C40.2403 31.9692 38.7666 27.9693 36.2103 25.9242C33.654 23.8791 31.7707 21.9243 30.8871 20.5108C30.3602 19.6687 30.3602 20.0296 30.3602 18.7063C31.3226 18.4056 33.3833 19.8191 35.6689 22.4957C35.0374 21.1123 32.1496 17.4432 30.3602 17.4733V16.541L30.3716 16.5383C31.0375 16.378 31.9523 16.1579 34.0449 17.5635C36.0756 18.9274 37.8139 21.4532 37.9546 21.804C37.453 20.3935 35.266 16.6143 32.451 16.0297C31.8134 15.7891 30.7915 15.8292 30.3602 15.8793V15.5696C30.6164 15.3681 30.8426 15.299 31.6534 15.299C33.8188 15.299 34.9171 15.9395 36.7216 17.4733C38.526 19.0071 39.6388 22.4957 40.15 23.7889C40.5591 24.8235 42.135 28.9317 43.0973 30.8865L39.6689 28.3302C40.5909 29.6936 42.408 32.5076 42.6005 32.6519C42.8411 32.8324 44.4952 34.6368 45.6681 36.5315C46.841 38.4262 46.3755 40.3299 46.3454 40.4803C46.3153 40.6306 46.3454 40.4803 44.1945 39.4186C44.3653 39.7392 44.7214 40.7209 45.7583 41.9449C46.9776 43.3831 48.044 43.208 49.0064 46.9072C49.7576 51.5687 49.4575 50.5763 51.4424 54.0649C53.0304 56.8558 52.2899 58.7656 51.7287 59.4272C50.9468 60.3433 48.9017 61.3219 46.9469 59.6678C47.3379 62.0737 45.7138 63.0662 44.8717 63.2767L45.2771 65.5834Z" fill="#2B1200"/>
<path d="M42.2396 47.3559C42.6727 49.7378 44.3653 51.496 45.1869 52.1077C45.0768 51.5862 44.9596 50.5907 44.7358 50.0325C44.3749 49.1303 43.9767 48.6106 43.7734 47.8672C43.3223 46.2131 43.5629 46.604 43.4426 43.7169C43.3223 40.8297 41.8486 38.3636 41.4577 38.2133C41.0968 38.0743 40.7359 38.2133 40.5855 38.3636C40.4351 38.514 40.3413 38.5326 40.4652 38.905C40.6156 39.3561 40.9338 39.8469 41.608 41.6026C42.4201 43.7169 41.6983 44.3785 42.2396 47.3559Z" fill="#2B1200"/>
<path fill-rule="evenodd" clip-rule="evenodd" d="M24.1013 29.621C24.1857 29.4779 24.3701 29.4303 24.5131 29.5147C24.8696 29.725 25.5169 29.9865 26.2658 30.0625C27.011 30.1381 27.8376 30.0287 28.5827 29.5246C28.7203 29.4316 28.9073 29.4677 29.0003 29.6052C29.0934 29.7428 29.0573 29.9298 28.9197 30.0229C28.0288 30.6256 27.051 30.7467 26.2051 30.6609C25.3631 30.5755 24.633 30.2837 24.2076 30.0328C24.0645 29.9484 24.0169 29.764 24.1013 29.621Z" fill="#2B1200"/>
<path fill-rule="evenodd" clip-rule="evenodd" d="M29.9914 29.5015C30.1047 29.4695 30.2198 29.4872 30.3175 29.5448C30.674 29.755 31.3213 30.0166 32.0702 30.0926C32.8153 30.1682 33.642 30.0588 34.3871 29.5547C34.5247 29.4617 34.7116 29.4977 34.8047 29.6353C34.8978 29.7729 34.8617 29.9599 34.7241 30.0529C33.8331 30.6556 32.8553 30.7768 32.0095 30.691C31.2528 30.6142 30.5865 30.3708 30.1505 30.1402C30.1335 30.174 30.114 30.2186 30.0935 30.2758C30.0023 30.5298 29.9268 30.9285 29.9089 31.3969C29.8725 32.3432 30.0738 33.4615 30.7184 34.1733C30.8073 34.2714 30.8745 34.3869 30.8974 34.5195C30.9209 34.6553 30.893 34.7812 30.838 34.8876C30.7368 35.0837 30.5415 35.2203 30.3717 35.3124C30.0213 35.5025 29.5567 35.6193 29.315 35.6374C29.1494 35.6499 29.0051 35.5256 28.9927 35.36C28.9802 35.1944 29.1044 35.05 29.2701 35.0376C29.4296 35.0257 29.8116 34.932 30.0849 34.7837C30.2212 34.7098 30.2828 34.6474 30.3014 34.6156C30.2973 34.608 30.289 34.5951 30.2726 34.577C29.4737 33.6949 29.269 32.3856 29.3078 31.3738C29.3274 30.8631 29.4098 30.4001 29.5273 30.0726C29.5842 29.9141 29.6594 29.7583 29.7612 29.6487C29.8132 29.5927 29.8891 29.5304 29.9914 29.5015Z" fill="#2B1200"/>
<path fill-rule="evenodd" clip-rule="evenodd" d="M32.8222 36.7366C32.9133 36.8755 32.8744 37.0619 32.7355 37.153C29.8087 39.0705 27.1608 37.9585 26.1813 37.1312C26.0544 37.024 26.0384 36.8342 26.1456 36.7073C26.2528 36.5804 26.4425 36.5645 26.5694 36.6716C27.3944 37.3685 29.7508 38.3893 32.4059 36.6498C32.5448 36.5588 32.7312 36.5976 32.8222 36.7366Z" fill="#2B1200"/>
<path fill-rule="evenodd" clip-rule="evenodd" d="M24.3753 47.3687C24.6071 47.2773 24.8691 47.3911 24.9605 47.6229C25.2145 48.2672 25.7593 49.2871 26.553 50.2071C27.3279 51.1053 28.3055 51.869 29.4429 52.1381C30.5828 51.8687 31.5757 51.1034 32.3656 50.2041C33.1747 49.2828 33.733 48.2634 33.9855 47.6229C34.0769 47.3911 34.3389 47.2773 34.5707 47.3687C34.8025 47.4601 34.9163 47.722 34.8249 47.9538C34.5361 48.6865 33.9245 49.7964 33.0434 50.7995C32.1646 51.8 30.9797 52.7371 29.5361 53.0417L29.4429 53.0613L29.3498 53.0417C27.9046 52.7367 26.734 51.7981 25.8699 50.7964C25.0034 49.7921 24.4084 48.6827 24.1211 47.9538C24.0297 47.722 24.1436 47.4601 24.3753 47.3687Z" fill="#2B1200"/>
<path fill-rule="evenodd" clip-rule="evenodd" d="M29.5031 52.3885L31.4804 55.3544L29.5031 58.6499L27.5258 55.3544L29.5031 52.3885ZM28.5932 55.3798L29.5031 56.8963L30.4129 55.3798L29.5031 54.015L28.5932 55.3798Z" fill="#2B1200"/>
<path fill-rule="evenodd" clip-rule="evenodd" d="M24.8178 60.0786C25.1508 60.1448 25.4489 60.2041 25.7194 60.244C26.4122 60.3463 27.1467 60.3474 27.8098 60.3208C28.0832 60.3098 28.3582 60.2929 28.6119 60.2774C28.942 60.2572 29.2359 60.2392 29.4429 60.2392C29.6447 60.2392 29.9468 60.2563 30.2935 60.2759C30.5745 60.2917 30.8849 60.3093 31.1949 60.3207C31.9212 60.3475 32.7151 60.3461 33.4071 60.244C33.6784 60.204 33.9746 60.145 34.3042 60.0793C34.5236 60.0355 34.7578 59.9889 35.0092 59.9429C35.6159 59.832 36.2852 59.7337 36.9395 59.7344C37.5927 59.7351 38.2615 59.8342 38.8505 60.1431C39.4515 60.4583 39.9379 60.9758 40.2391 61.7502C40.8228 63.2513 40.5308 64.5362 40.1167 65.5635C39.9747 65.9159 39.8104 66.2551 39.6662 66.5529C39.6065 66.6764 39.5501 66.7927 39.5002 66.9C39.3153 67.2974 39.2219 67.5642 39.217 67.7595C39.2061 68.1957 39.2632 68.5234 39.3316 68.7488C39.3659 68.8619 39.4025 68.9477 39.4338 69.008C39.4638 69.0657 39.4842 69.0912 39.4868 69.0944C39.4871 69.0948 39.4871 69.0949 39.487 69.0947C39.6569 69.277 39.6468 69.5624 39.4646 69.7323C39.2823 69.9022 38.9968 69.8921 38.827 69.7099C38.5787 69.4435 38.2892 68.7694 38.315 67.7369C38.3252 67.3307 38.5024 66.9058 38.6822 66.5194C38.7433 66.388 38.8063 66.2581 38.8698 66.1269C39.0084 65.8409 39.1496 65.5494 39.2799 65.2262C39.6477 64.3137 39.867 63.2829 39.3982 62.0773C39.1731 61.4984 38.8324 61.1524 38.4315 60.9421C38.0187 60.7256 37.5109 60.6373 36.9385 60.6366C36.3673 60.636 35.7621 60.7224 35.1715 60.8304C34.9552 60.87 34.7343 60.9138 34.5181 60.9568C34.1664 61.0266 33.8269 61.0941 33.5388 61.1366C32.7631 61.251 31.9029 61.2497 31.1616 61.2223C30.7967 61.2089 30.4736 61.1902 30.1967 61.1741C29.8849 61.1561 29.6316 61.1414 29.4429 61.1414C29.2511 61.1414 29.0106 61.1566 28.717 61.175C28.4663 61.1908 28.1769 61.209 27.846 61.2223C27.1618 61.2498 26.3625 61.2509 25.5877 61.1366C25.3005 61.0942 24.9596 61.0266 24.6044 60.9562C24.384 60.9125 24.1582 60.8678 23.9363 60.8272C23.3342 60.7173 22.7133 60.6282 22.126 60.6264C21.537 60.6246 21.0131 60.7112 20.5886 60.9274C20.1768 61.1371 19.8316 61.4817 19.608 62.0568C19.1391 63.2624 19.3584 64.2933 19.7262 65.2058C19.8565 65.529 19.9977 65.8205 20.1363 66.1065C20.1999 66.2376 20.2629 66.3676 20.324 66.499C20.5038 66.8854 20.681 67.3102 20.6911 67.7165C20.7169 68.7488 20.4277 69.4231 20.179 69.6896C20.009 69.8718 19.7235 69.8816 19.5414 69.7117C19.3592 69.5417 19.3494 69.2562 19.5193 69.0741C19.5192 69.0742 19.5193 69.0741 19.5196 69.0738C19.5222 69.0705 19.5426 69.045 19.5724 68.9875C19.6037 68.9273 19.6403 68.8414 19.6746 68.7284C19.7429 68.503 19.8001 68.1752 19.7892 67.739C19.7843 67.5438 19.6908 67.2769 19.5059 66.8795C19.456 66.7723 19.3997 66.6559 19.3399 66.5324C19.1957 66.2346 19.0315 65.8955 18.8894 65.5431C18.4753 64.5158 18.1833 63.2309 18.7671 61.7298C19.0697 60.9515 19.5666 60.4353 20.1792 60.1234C20.7791 59.8179 21.462 59.7222 22.1287 59.7242C22.797 59.7262 23.4805 59.8269 24.0983 59.9397C24.3554 59.9866 24.5945 60.0342 24.8178 60.0786Z" fill="#2B1200"/>
<path d="M46.9764 17.6537C46.9764 16.9693 45.9147 14.4881 43.7584 14.0604C45.8022 13.9235 46.755 11.8929 46.9764 11.0373C47.1977 11.8929 48.1505 13.952 50.1943 14.0889C48.038 14.5167 46.9764 16.9693 46.9764 17.6537Z" fill="#2B1200"/>
<path d="M7.75922 29.8038C7.75922 28.8518 6.34042 25.4008 3.45857 24.8057C6.18969 24.6154 7.46365 21.791 7.75922 20.601C8.05479 21.791 9.32875 24.655 12.0599 24.8454C9.17801 25.4404 7.75922 28.8518 7.75922 29.8038Z" fill="#2B1200"/>
<path d="M53.5025 47.3974C53.5025 46.6756 52.5401 44.0591 50.5853 43.608C52.4379 43.4637 53.3022 41.3223 53.5025 40.4201C53.7028 41.3223 54.5672 43.4937 56.4197 43.6381C54.4649 44.0892 53.5025 46.6756 53.5025 47.3974Z" fill="#2B1200"/>
<path d="M2.53202 72.5452H0V80.0448H2.53202C5.14443 80.0448 6.57523 78.397 6.57523 76.283C6.57523 74.185 5.14443 72.5452 2.53202 72.5452ZM2.33911 79.0722H1.18965V73.5178H2.33911C4.34865 73.5178 5.32931 74.611 5.32931 76.283C5.32931 77.971 4.34865 79.0722 2.33911 79.0722ZM12.837 77.2717C12.837 75.6881 11.7679 74.5869 10.2165 74.5869C8.61692 74.5869 7.4755 75.8168 7.4755 77.3842C7.4755 78.9597 8.60085 80.1734 10.3451 80.1734C11.2776 80.1734 12.0492 79.86 12.5315 79.3214L11.7438 78.6864C11.4062 79.0722 10.948 79.2732 10.3371 79.2732C9.34036 79.2732 8.75357 78.5819 8.67319 77.6334H12.837V77.2717ZM10.2165 75.5033C11.0525 75.5033 11.591 76.0016 11.7116 76.8456H8.72142C8.88218 76.0418 9.43682 75.5033 10.2165 75.5033ZM16.43 74.5869C15.803 74.5869 15.377 74.8924 15.0716 75.4309L14.9349 74.7236H13.9462V80.0448H15.0877V77.2717C15.0877 76.4035 15.5378 75.6319 16.3738 75.6319C16.5586 75.6319 16.7355 75.664 16.8882 75.7364L17.2258 74.7638C17.0892 74.6753 16.7837 74.5869 16.43 74.5869ZM23.8171 74.5869C22.8766 74.5869 22.4104 74.9406 22.0728 75.4309C21.7272 74.8281 21.1484 74.5869 20.5375 74.5869C19.9266 74.5869 19.372 74.8763 19.0665 75.4068L18.9379 74.7236H17.9412V80.0448H19.0826V76.918C19.155 76.0257 19.573 75.5595 20.2562 75.5595C20.9796 75.5595 21.277 76.1544 21.277 77.0225V80.0448H22.4104V77.1913C22.4104 76.1463 22.8365 75.5595 23.5679 75.5595C24.3074 75.5595 24.6048 76.1544 24.6048 77.0144V80.0448H25.7382V76.9341C25.7382 75.1978 24.8219 74.5869 23.8171 74.5869ZM28.6963 80.1976C29.4438 80.1976 30.1512 79.876 30.5129 79.3696L30.6897 80.0448H31.6463V76.8617C31.6463 75.3505 30.8585 74.5869 29.2911 74.5869C28.5034 74.5869 27.8523 74.7879 27.3459 75.1817L27.8523 75.9695C28.1979 75.664 28.6561 75.5113 29.1705 75.5113C30.0145 75.5113 30.5129 75.9132 30.5129 76.6286V77.0707L30.3682 77.0225C28.0613 76.1544 26.7912 77.344 26.7912 78.4854C26.7912 79.4822 27.6352 80.1976 28.6963 80.1976ZM29.0339 79.3214C28.3667 79.3214 27.9889 78.8954 27.9889 78.405C27.9889 77.7861 28.7043 77.1672 30.3602 77.754L30.5129 77.7941V77.9469C30.5129 78.815 29.8055 79.3214 29.0339 79.3214ZM35.7779 74.5869C35.0223 74.5869 34.4516 74.8924 34.1301 75.3586L33.9934 74.7236H32.9967V80.0448H34.1301V76.7974C34.2265 75.865 34.8616 75.5595 35.4564 75.5595C36.2763 75.5595 36.63 76.1463 36.63 77.0144V80.0448H37.7633V76.7572C37.7633 75.1014 36.7023 74.5869 35.7779 74.5869ZM39.805 73.7027C40.215 73.7027 40.5445 73.3812 40.5445 72.9793C40.5445 72.5774 40.215 72.2558 39.805 72.2558C39.3951 72.2558 39.0655 72.5774 39.0655 72.9793C39.0655 73.3812 39.3951 73.7027 39.805 73.7027ZM39.2584 80.0448H40.3677V74.7236H39.2584V80.0448ZM43.9206 72.8507C44.0733 72.8507 44.2743 72.9069 44.4511 73.0355L44.9414 72.2076C44.5636 71.9825 44.2501 71.8781 43.8 71.8781C42.8515 71.8781 42.1843 72.5372 42.1843 73.8153V74.7236H41.485V75.6399H42.1843V80.0448H43.3097V75.6399H44.427V74.7236H43.3097V73.7268C43.3097 73.2124 43.4624 72.8507 43.9206 72.8507ZM50.3592 77.2717C50.3592 75.6881 49.2901 74.5869 47.7387 74.5869C46.1391 74.5869 44.9977 75.8168 44.9977 77.3842C44.9977 78.9597 46.123 80.1734 47.8754 80.1734C48.7998 80.1734 49.5714 79.86 50.0537 79.3214L49.266 78.6864C48.9284 79.0722 48.4702 79.2732 47.8593 79.2732C46.8626 79.2732 46.2758 78.5819 46.1954 77.6334H50.3592V77.2717ZM47.7387 75.5033C48.5747 75.5033 49.1132 76.0016 49.2338 76.8456H46.2436C46.4044 76.0418 46.959 75.5033 47.7387 75.5033ZM50.954 79.2973C51.3398 79.8278 52.1517 80.1976 53.1484 80.1976C54.4586 80.1976 55.2705 79.5545 55.2705 78.598C55.2705 76.709 52.4571 77.344 52.4571 76.1946C52.4571 75.7926 52.7626 75.5274 53.3815 75.5113C53.7673 75.5033 54.2094 75.6881 54.531 75.9936L55.1499 75.2782C54.7962 74.9004 54.121 74.5869 53.3333 74.5869C52.0713 74.5869 51.2916 75.2541 51.2916 76.2347C51.2916 78.1719 54.0567 77.5852 54.0567 78.6221C54.0567 79.0159 53.7352 79.2892 53.0761 79.2892C52.5455 79.2892 52.0713 79.0963 51.6774 78.598L50.954 79.2973ZM58.8234 79.0642C58.751 79.1124 58.5581 79.1687 58.3411 79.1687C57.9793 79.1687 57.7543 78.9597 57.7543 78.4774V75.6399H58.8796V74.7236H57.7543V73.2044H56.6129V74.7236H55.9135V75.6399H56.6129V78.5739C56.6129 79.8519 57.4167 80.1413 58.0678 80.1413C58.4938 80.1413 58.8314 80.0609 58.9761 79.9886L58.8234 79.0642Z" fill="#2B1200"/>
</svg>
